<svg width="585" height="948" viewBox="0 0 585 948" fill="none" xmlns="http://www.w3.org/2000/svg">
<g clip-path="url(#clip0_2130_21730)">
<path d="M162 715.04C188.21 753.17 204.3 797.14 214.32 842.22C215.84 849.06 220.87 869.34 220 875.04C219.59 877.71 217.83 878.76 216.01 880.55C198.81 897.47 174.82 914.54 155.99 930.52C149.84 935.74 143.52 941.14 138 947.03H-77V830.03C0.199997 790.94 77.17 751 156.28 715.81C158.54 714.8 160.95 715.44 162 715.03V715.04Z" fill="#52B9A0"/>
<path d="M460 486.04C435.54 567.29 412.11 650.31 367.8 723.34C354.75 744.85 345.57 750.33 328.47 767.01C297.84 796.88 268.22 827.78 237 857.04C236.04 836.09 224.37 797.89 217.02 777.52C207.17 750.25 196.08 736.32 182.92 712.56C182.12 711.11 183.1 710.11 183 710.04C200.75 696.77 220.53 686.02 238.31 672.85C263.59 654.14 275.14 618.69 290.82 591.36C308.98 559.72 330.38 530.04 349.41 498.95C353.03 493.03 377.28 453 376.99 450.03L459.99 486.03L460 486.04Z" fill="#EAA868"/>
<path d="M522 210.04C517.34 210.71 512.63 211.17 508 212.04C509.87 198.93 516.46 181.52 501.37 174.17C491.61 169.41 479.25 171.34 474.12 181.67C469.93 190.1 467.53 208.08 465 218.05C462.61 218 460.34 218.73 458 219.05C452.29 219.83 444.53 221.52 439.65 217.9C436.25 215.38 434.76 207.34 434 203.05C424.06 146.6 419.3 88.9698 409.01 32.5298C408.52 22.3998 412.87 20.1498 421.8 18.3498C462.56 10.1198 506.42 7.95977 547.46 0.00976562C554.14 0.469766 557.94 5.48977 558.74 11.8198C563.54 69.5498 580.8 130.45 584.87 187.69C585.37 194.74 584.23 198.91 577.24 201.8C558.85 204.64 540.42 207.43 522.01 210.07L522 210.04Z" fill="#FF4F4F"/>
<path d="M508 212.04C506.14 225.13 500.87 244.25 500.92 256.54C500.96 266.77 506.58 280.14 507.88 290.66C509.08 300.38 508.58 314.76 506.89 324.43C505.89 330.16 502.83 335.24 503.01 341.04C509.41 338.45 511.86 313.08 513.01 312.04C513.49 311.6 517.14 313.67 518 313.04C521.23 335.32 517.09 358.08 506.17 377.71C502 385.21 496.41 391.72 492 399.04C490.58 399.86 489.17 399.41 487.78 398.86C464.71 389.63 442.08 379.22 418.64 370.87C416.88 369.86 417.13 368.15 417 368.05C420.1 359.3 420.65 349.92 419.87 340.68C417.49 312.41 405.61 282.01 401.97 253.59L405.19 243.74L434 203.05C434.76 207.34 436.25 215.38 439.65 217.9C444.53 221.52 452.29 219.83 458 219.05C455.53 234.39 452.06 250.53 446.48 265.03C444.14 271.11 438.71 279.3 437.19 284.74C436.78 286.21 436.43 287.44 438.48 287.03C454.49 267.05 458.86 242.14 464.99 218.04C467.53 208.07 469.93 190.09 474.11 181.66C479.24 171.34 491.6 169.4 501.36 174.16C516.44 181.51 509.85 198.93 507.99 212.03L508 212.04Z" fill="#EAA868"/>
<path d="M417 368.04C417.13 368.14 416.88 369.86 418.64 370.86C442.08 379.21 464.7 389.62 487.78 398.85C489.17 399.41 490.59 399.86 492 399.03C493.78 403.6 498.08 404.97 495.31 410.85L468.2 480.73C466.6 483.77 463.62 486.19 460 486.03L377 450.03C376.89 448.91 374.9 447.07 375.02 445.48C383.77 424.85 392.95 403.75 403.11 383.65C404.64 380.62 407.49 374.06 409.44 371.98C410.53 370.83 416.04 367.28 416.99 368.03L417 368.04Z" fill="#04457C"/>
<path d="M183 710.04C183.11 710.11 182.12 711.11 182.92 712.56C196.08 736.32 207.17 750.25 217.02 777.52C224.37 797.88 236.04 836.08 237 857.04C237.1 859.21 235.98 864.39 234.59 866.13C232.79 868.38 223.33 875.32 220 875.04C220.87 869.35 215.84 849.07 214.32 842.22C204.3 797.14 188.21 753.17 162 715.04C162.21 714.96 163.62 712.41 165.06 711.6C168.15 709.85 173.9 706.17 177.28 707.21C178.36 707.54 179.12 708.87 180.13 709.47C181.23 710.12 182.79 709.9 183.01 710.04H183Z" fill="#04457C"/>
<path d="M545 266.04C542.22 269.79 527.96 284.62 524.33 286.87C520.17 289.46 514.41 290.76 511.91 285.62C510.96 283.68 508.74 272.71 509.46 271.08C510.18 269.45 515.82 265.04 517.51 263.05C522.82 256.81 528.04 250.07 533.02 243.56C534.16 242.08 535.42 241.37 534.99 239.03C535.68 239.3 537.06 238.97 538 239.49C547.21 244.58 551.65 257.06 544.99 266.03L545 266.04Z" fill="#EAA868"/>
<path d="M522 210.04C522.64 210.64 523.28 211.61 524 212.04C520.78 216.01 514.83 213.12 512.47 219.01C510.21 224.65 506.31 247.14 506.01 253.55C505.93 255.32 506.2 263.28 507.04 263.99C508.48 265.21 512.66 262.79 514.04 261.58C517.13 258.87 530.92 240.86 533 237.03C533.61 237.51 534.41 238.8 535 239.03C535.43 241.37 534.16 242.07 533.03 243.56C528.04 250.07 522.82 256.81 517.52 263.05C515.83 265.04 510.15 269.52 509.47 271.08C508.79 272.64 510.98 283.68 511.92 285.62C514.42 290.75 520.18 289.45 524.34 286.87C527.97 284.61 542.23 269.79 545.01 266.04C546.65 266.56 547.1 267.94 548.01 269.04C536.74 277.68 528.74 290.97 514.49 295.02C512.03 303.77 515.57 306.57 522.01 311.04C521.23 311.27 519.73 310.7 518.7 311.03C517.6 311.38 518.09 312.98 518.01 313.04C517.14 313.67 513.5 311.6 513.02 312.04C511.87 313.08 509.42 338.46 503.02 341.04C502.84 335.24 505.91 330.17 506.9 324.43C508.58 314.76 509.08 300.38 507.89 290.66C506.59 280.14 500.97 266.77 500.93 256.54C500.88 244.25 506.15 225.14 508.01 212.04C512.64 211.17 517.35 210.71 522.01 210.04H522Z" fill="#D2985D"/>
<path d="M533 237.04C530.93 240.87 517.14 258.87 514.04 261.59C512.66 262.8 508.48 265.22 507.04 264C506.2 263.29 505.92 255.33 506.01 253.56C506.31 247.15 510.21 224.66 512.47 219.02C514.83 213.13 520.78 216.01 524 212.05C532.99 217.35 538.62 226.68 533 237.05V237.04Z" fill="#EAA868"/>
<path d="M522 311.04C515.56 306.57 512.03 303.77 514.48 295.02C528.73 290.97 536.73 277.68 548 269.04C558.12 281.36 548.64 290.54 539.53 299.07C534.34 303.92 528.88 308.98 522 311.04Z" fill="#EAA868"/>
<path d="M465 218.04C458.87 242.14 454.5 267.05 438.49 287.03C436.43 287.43 436.79 286.21 437.2 284.74C438.72 279.3 444.16 271.11 446.49 265.03C452.07 250.52 455.54 234.39 458.01 219.05C460.35 218.73 462.62 218 465.01 218.05L465 218.04Z" fill="#D2985D"/>
</g>
<defs>
<clipPath id="clip0_2130_21730">
<rect width="661.97" height="947.04" fill="white" transform="translate(-77)"/>
</clipPath>
</defs>
</svg>
